<svg width="55" height="29" viewBox="0 0 55 29" fill="none" xmlns="http://www.w3.org/2000/svg">
<path d="M11.2344 13.5137H14.2754V5.12891H11.2344V13.5137ZM18.3184 15.0781L18.3359 15.1836C20.6797 15.4531 22.3613 16.1328 23.3809 17.2227C24.4121 18.3008 24.9277 19.666 24.9277 21.3184V29H14.2754V17.5918H11.2344V29H0.617188V0.962891H16.666C17.9902 0.962891 19.1211 1.08008 20.0586 1.31445C21.0078 1.53711 21.834 1.91797 22.5371 2.45703C23.252 2.99609 23.7793 3.73438 24.1191 4.67188C24.4707 5.59766 24.6465 6.73438 24.6465 8.08203C24.6465 8.91406 24.5938 9.64648 24.4883 10.2793C24.3828 10.9004 24.1895 11.498 23.9082 12.0723C23.6387 12.6465 23.2695 13.1328 22.8008 13.5312C22.332 13.918 21.7227 14.2461 20.9727 14.5156C20.2227 14.7852 19.3379 14.9727 18.3184 15.0781Z" fill="#1E7F6D"/>
<path d="M54.9863 29H43.5781L39.1484 16.7832L38.1113 19.0859V29H27.4766V0.962891H38.1113V11.1934L38.0762 14.4277L43.2617 0.962891H54.1426L48.4297 14.2344L54.9863 29Z" fill="#1E7F6D"/>
</svg>
