<svg width="100" height="100" viewBox="0 0 100 100" fill="none" xmlns="http://www.w3.org/2000/svg">
<circle cx="50" cy="50" r="50" fill="#3F3F3F"/>
<path d="M20.552 67V32.92H35.624C37.192 32.92 38.632 33.24 39.944 33.88C41.288 34.52 42.44 35.384 43.4 36.472C44.392 37.56 45.144 38.776 45.656 40.12C46.2 41.464 46.472 42.84 46.472 44.248C46.472 45.688 46.216 47.08 45.704 48.424C45.224 49.736 44.52 50.888 43.592 51.88C42.664 52.872 41.576 53.64 40.328 54.184L48.104 67H40.808L33.8 55.576H27.176V67H20.552ZM27.176 49.768H35.48C36.312 49.768 37.048 49.528 37.688 49.048C38.328 48.536 38.84 47.864 39.224 47.032C39.608 46.2 39.8 45.272 39.8 44.248C39.8 43.16 39.576 42.216 39.128 41.416C38.68 40.584 38.104 39.928 37.4 39.448C36.728 38.968 35.992 38.728 35.192 38.728H27.176V49.768ZM54.1539 67V32.968H60.7779V49.144L75.0819 32.92H82.3779L69.3219 48.04L83.1939 67H75.7059L65.0979 52.312L60.7779 56.824V67H54.1539Z" fill="white"/>
</svg>
