<svg width="67" height="56" viewBox="0 0 67 56" fill="none" xmlns="http://www.w3.org/2000/svg">
<path d="M3.552 45V10.92H18.624C20.192 10.92 21.632 11.24 22.944 11.88C24.288 12.52 25.44 13.384 26.4 14.472C27.392 15.56 28.144 16.776 28.656 18.12C29.2 19.464 29.472 20.84 29.472 22.248C29.472 23.688 29.216 25.08 28.704 26.424C28.224 27.736 27.52 28.888 26.592 29.88C25.664 30.872 24.576 31.64 23.328 32.184L31.104 45H23.808L16.8 33.576H10.176V45H3.552ZM10.176 27.768H18.48C19.312 27.768 20.048 27.528 20.688 27.048C21.328 26.536 21.84 25.864 22.224 25.032C22.608 24.2 22.8 23.272 22.8 22.248C22.8 21.16 22.576 20.216 22.128 19.416C21.68 18.584 21.104 17.928 20.4 17.448C19.728 16.968 18.992 16.728 18.192 16.728H10.176V27.768ZM37.1539 45V10.968H43.7779V27.144L58.0819 10.92H65.3779L52.3219 26.04L66.1939 45H58.7059L48.0979 30.312L43.7779 34.824V45H37.1539Z" fill="#1E7F6D"/>
</svg>
